<svg xmlns="http://www.w3.org/2000/svg" viewBox="0 0 32 32">
  <!-- Sky background -->
  <rect width="32" height="32" rx="6" fill="#1a6b8a"/>
  <!-- Sun -->
  <circle cx="16" cy="13" r="6" fill="#f5c842"/>
  <!-- Sun rays -->
  <g stroke="#f5c842" stroke-width="1.5" stroke-linecap="round">
    <line x1="16" y1="4" x2="16" y2="2"/>
    <line x1="23.2" y1="6.8" x2="24.6" y2="5.4"/>
    <line x1="26" y1="13" x2="28" y2="13"/>
    <line x1="23.2" y1="19.2" x2="24.6" y2="20.6"/>
    <line x1="8.8" y1="6.8" x2="7.4" y2="5.4"/>
    <line x1="6" y1="13" x2="4" y2="13"/>
    <line x1="8.8" y1="19.2" x2="7.4" y2="20.6"/>
  </g>
  <!-- Water -->
  <path d="M4 22 Q8 20 12 22 Q16 24 20 22 Q24 20 28 22 L28 28 Q24 26 20 28 Q16 30 12 28 Q8 26 4 28 Z" fill="#5bb8d4" opacity="0.85"/>
</svg>
